<?xml version="1.0" encoding="iso-8859-1"?>
<!-- Generator: Adobe Illustrator 19.0.0, SVG Export Plug-In . SVG Version: 6.00 Build 0)  -->
<svg version="1.1" id="Capa_1" xmlns="http://www.w3.org/2000/svg" xmlns:xlink="http://www.w3.org/1999/xlink" x="0px" y="0px"
	 viewBox="0 0 384 384" style="enable-background:new 0 0 384 384;" xml:space="preserve">
<g>
	<g>
		<path d="M300.232,209.52c-0.832-0.68-1.704-1.264-2.632-1.752c-13.192-8.728-27.52-15.848-42.712-21.128
			C279.816,167.616,296,137.704,296,104C296,46.656,249.344,0,192,0S88,46.656,88,104c0,33.704,16.184,63.616,41.104,82.632
			c-15.192,5.28-29.52,12.408-42.712,21.128c-0.92,0.488-1.8,1.072-2.632,1.752C33.232,244.136,0,302.248,0,368
			c0,8.832,7.168,16,16,16c8.832,0,16-7.168,16-16c0-50.568,23.648-95.648,60.384-124.992l88.304,88.304
			c3,3,7.072,4.688,11.312,4.688s8.312-1.688,11.312-4.688l88.304-88.304C328.352,272.352,352,317.432,352,368
			c0,8.832,7.168,16,16,16c8.832,0,16-7.168,16-16C384,302.248,350.768,244.136,300.232,209.52z M120,104c0-39.696,32.296-72,72-72
			s72,32.304,72,72s-32.296,72-72,72C152.296,176,120,143.696,120,104z M192,297.368l-72.04-72.04
			C141.64,214.336,166.072,208,192,208s50.36,6.336,72.04,17.328L192,297.368z"/>
	</g>
</g>
<g>
	<g>
		<path d="M96,328c-8.832,0-16,7.168-16,16v24c0,8.832,7.168,16,16,16c8.832,0,16-7.168,16-16v-24C112,335.168,104.832,328,96,328z"
			/>
	</g>
</g>
<g>
	<g>
		<path d="M296,328c-8.832,0-16,7.168-16,16v24c0,8.832,7.168,16,16,16c8.832,0,16-7.168,16-16v-24C312,335.168,304.832,328,296,328
			z"/>
	</g>
</g>
<g>
</g>
<g>
</g>
<g>
</g>
<g>
</g>
<g>
</g>
<g>
</g>
<g>
</g>
<g>
</g>
<g>
</g>
<g>
</g>
<g>
</g>
<g>
</g>
<g>
</g>
<g>
</g>
<g>
</g>
</svg>
