<svg id="Capa_1" enable-background="new 0 0 512 512" height="512" viewBox="0 0 512 512" width="512" xmlns="http://www.w3.org/2000/svg"><g><path d="m100.737 313.832-67.188 116.373c-3.034 5.254-2.604 11.818 1.09 16.631s9.922 6.926 15.783 5.357l67.504-18.087 18.056 66.807c1.58 5.845 6.518 10.167 12.521 10.958 6.028.792 11.903-2.123 14.932-7.34l66.902-115.223c8.399 1.11 16.964 1.692 25.663 1.692s17.264-.582 25.665-1.691l66.902 115.223c3.028 5.215 8.903 8.133 14.932 7.34 6.002-.792 10.941-5.113 12.521-10.958l18.056-66.807 67.504 18.087c5.862 1.569 12.089-.544 15.783-5.357 3.693-4.813 4.124-11.377 1.09-16.631l-67.188-116.374c24.918-32.756 39.735-73.593 39.735-117.832 0-108.075-87.476-196-195-196s-195 87.925-195 196c0 41.614 13.218 82.973 39.737 117.832zm140.263-177.832v-46h15c8.271 0 15 6.729 15 15v61c0 8.284 6.716 15 15 15h45v75c0 8.271-6.729 15-15 15h-105v-92.58c17.459-6.192 30-22.865 30-42.42zm-60 135h-71.948c-11.538-22.515-18.052-48.011-18.052-75 0-5.057.239-10.057.681-15h89.319zm-25.445 187.355-12.574-46.525c-2.158-7.986-10.374-12.717-18.363-10.575l-46.982 12.589 44.165-76.498c21.761 20.671 48.276 36.375 77.712 45.3zm231.828-57.1c-7.992-2.143-16.204 2.59-18.363 10.575l-12.574 46.525-43.958-75.708c29.436-8.925 55.951-24.629 77.712-45.3l44.165 76.498zm-131.383-371.255c90.981 0 165 74.467 165 166 0 90.981-74.019 165-165 165-51.128 0-96.897-23.376-127.186-60h187.186c24.813 0 45-20.187 45-45v-90c0-8.284-6.716-15-15-15h-45v-46c0-24.813-20.187-45-45-45h-30c-8.284 0-15 6.716-15 15v61c0 8.271-6.729 15-15 15h-98.836c19.547-69.738 83.351-121 158.836-121z"/></g></svg>