<svg id="Capa_1" enable-background="new 0 0 512 512" height="512" viewBox="0 0 512 512" width="512" xmlns="http://www.w3.org/2000/svg"><g><path d="m64.568 245.751c0 4.142 3.358 7.5 7.5 7.5h148c4.142 0 7.5-3.358 7.5-7.5s-3.358-7.5-7.5-7.5h-3.987c-3.378-32.322-29.081-58.093-61.369-61.587v-6.127c0-4.142-3.358-7.5-7.5-7.5s-7.5 3.358-7.5 7.5v6.127c-32.288 3.494-57.99 29.265-61.369 61.587h-6.275c-4.142 0-7.5 3.358-7.5 7.5zm82.644-54.5c27.456 0 50.213 20.501 53.768 47h-107.535c3.554-26.499 26.311-47 53.767-47z"/><path d="m207.568 271.394h-123c-11.028 0-20 8.972-20 20s8.972 20 20 20h123c11.028 0 20-8.972 20-20s-8.972-20-20-20zm0 25h-123c-2.757 0-5-2.243-5-5s2.243-5 5-5h123c2.757 0 5 2.243 5 5s-2.243 5-5 5z"/><path d="m313.828 144.792h104.006c12.681 0 22.997-10.316 22.997-22.997 0-12.68-10.316-22.997-22.997-22.997h-104.006c-12.681 0-22.997 10.316-22.997 22.997 0 12.68 10.316 22.997 22.997 22.997zm0-30.994h104.006c4.409 0 7.997 3.587 7.997 7.997s-3.588 7.997-7.997 7.997h-104.006c-4.409 0-7.997-3.587-7.997-7.997s3.588-7.997 7.997-7.997z"/><path d="m298.331 179.232h41.731c4.143 0 7.5-3.358 7.5-7.5s-3.357-7.5-7.5-7.5h-41.731c-4.143 0-7.5 3.358-7.5 7.5s3.357 7.5 7.5 7.5z"/><path d="m298.331 213.404h88.731c4.143 0 7.5-3.358 7.5-7.5s-3.357-7.5-7.5-7.5h-88.731c-4.143 0-7.5 3.358-7.5 7.5s3.357 7.5 7.5 7.5z"/><path d="m433.331 198.404h-20.769c-4.143 0-7.5 3.358-7.5 7.5s3.357 7.5 7.5 7.5h20.769c4.143 0 7.5-3.358 7.5-7.5s-3.357-7.5-7.5-7.5z"/><path d="m298.331 242.318h88.731c4.143 0 7.5-3.358 7.5-7.5s-3.357-7.5-7.5-7.5h-88.731c-4.143 0-7.5 3.358-7.5 7.5s3.357 7.5 7.5 7.5z"/><path d="m433.331 227.318h-20.769c-4.143 0-7.5 3.358-7.5 7.5s3.357 7.5 7.5 7.5h20.769c4.143 0 7.5-3.358 7.5-7.5s-3.357-7.5-7.5-7.5z"/><path d="m298.331 271.232h88.731c4.143 0 7.5-3.358 7.5-7.5s-3.357-7.5-7.5-7.5h-88.731c-4.143 0-7.5 3.358-7.5 7.5s3.357 7.5 7.5 7.5z"/><path d="m433.331 256.232h-20.769c-4.143 0-7.5 3.358-7.5 7.5s3.357 7.5 7.5 7.5h20.769c4.143 0 7.5-3.358 7.5-7.5s-3.357-7.5-7.5-7.5z"/><path d="m298.331 313.705h41.731c4.143 0 7.5-3.358 7.5-7.5s-3.357-7.5-7.5-7.5h-41.731c-4.143 0-7.5 3.358-7.5 7.5s3.357 7.5 7.5 7.5z"/><path d="m298.331 348.372h88.731c4.143 0 7.5-3.358 7.5-7.5s-3.357-7.5-7.5-7.5h-88.731c-4.143 0-7.5 3.358-7.5 7.5s3.357 7.5 7.5 7.5z"/><path d="m433.331 333.372h-20.769c-4.143 0-7.5 3.358-7.5 7.5s3.357 7.5 7.5 7.5h20.769c4.143 0 7.5-3.358 7.5-7.5s-3.357-7.5-7.5-7.5z"/><path d="m298.331 377.705h88.731c4.143 0 7.5-3.358 7.5-7.5s-3.357-7.5-7.5-7.5h-88.731c-4.143 0-7.5 3.358-7.5 7.5s3.357 7.5 7.5 7.5z"/><path d="m433.331 362.705h-20.769c-4.143 0-7.5 3.358-7.5 7.5s3.357 7.5 7.5 7.5h20.769c4.143 0 7.5-3.358 7.5-7.5s-3.357-7.5-7.5-7.5z"/><path d="m504.5 328.919c4.143 0 7.5-3.358 7.5-7.5v-208.704c0-8.547-6.953-15.5-15.5-15.5h-13.338v-11.996c0-7.995-6.505-14.5-14.5-14.5h-189.662c-9.171 0-17.404 4.075-23 10.503-5.596-6.428-13.828-10.503-23-10.503h-137.105c-4.142 0-7.5 3.358-7.5 7.5s3.358 7.5 7.5 7.5h137.105c8.547 0 15.5 6.953 15.5 15.5v296.281c-10.38 0-194.718 0-204.662 0v-292.785-18.996h17.057c4.142 0 7.5-3.358 7.5-7.5s-3.358-7.5-7.5-7.5h-17.557c-7.995 0-14.5 6.505-14.5 14.5v11.996h-13.338c-8.547 0-15.5 6.953-15.5 15.5v313.066c0 8.547 6.953 15.5 15.5 15.5h481c8.547 0 15.5-6.953 15.5-15.5v-69.362c0-4.142-3.357-7.5-7.5-7.5s-7.5 3.358-7.5 7.5v69.362c0 .276-.225.5-.5.5h-233v-13.781h205.162c7.995 0 14.5-6.505 14.5-14.5v-52.123-35-198.662h13.338c.275 0 .5.224.5.5v208.704c0 4.142 3.357 7.5 7.5 7.5zm-256 97.362h-233c-.276 0-.5-.224-.5-.5v-313.066c0-.276.224-.5.5-.5h13.338v285.785c0 7.995 6.505 14.5 14.5 14.5h205.162zm219.662-321.566v206.162 35 51.623h-204.662c0-13.917 0-281.876 0-296.281 0-8.547 6.953-15.5 15.5-15.5h189.162z"/></g></svg>