<?xml version="1.0"?>
<svg xmlns="http://www.w3.org/2000/svg" id="Layer_1" data-name="Layer 1" viewBox="0 0 512 512" width="512" height="512"><title>Vehicle  Service </title><path d="M59.686,481.055A6.821,6.821,0,0,0,66.634,487h90a6.713,6.713,0,0,0,6.7-8.73l-11.514-37.714L187.691,417.9a20.77,20.77,0,0,1,15.1-1.926c.144.037.29.075.437.1l74.909,13.8a98.358,98.358,0,0,0,60.775-8.579,6.774,6.774,0,0,0,.856-.5l129.557-88.955a7,7,0,0,0,2.035-9.38,36.972,36.972,0,0,0-49.3-13.484l-1.206.651c-9.43-10.647-25.1-14.624-37.122-8.529l-.156.082-4.376,2.357a41,41,0,0,0-46.19-3.63L305.272,315h-37a52.531,52.531,0,0,1-22.743-5.22l-5.137-2.489a89.566,89.566,0,0,0-93.215,9.1c-.154.116-.3.236-.446.363L134.325,327.8a41.637,41.637,0,0,1-14.36,8.339l-6.636-21.973A7.189,7.189,0,0,0,106.634,309h-60a7.21,7.21,0,0,0-5.241,2.567,6.992,6.992,0,0,0-1.707,5.488Zm330.448-167.5c5.679-2.833,12.7-.927,17.744,3.078l-47.324,25.531-1.465.773a43.993,43.993,0,0,0-5.364-9.764Zm-50.354-1.4c.056-.03.112-.061.166-.092a26.983,26.983,0,0,1,25.213-.957l-21.9,11.8a43.891,43.891,0,0,0-12.241-5.986Zm-196.146,26.1,12.186-10.849A75.621,75.621,0,0,1,234.3,319.89l5.138,2.493A66.619,66.619,0,0,0,268.272,329H318.1a30.094,30.094,0,0,1,29.134,22.675l-34.274-1.555a217.243,217.243,0,0,0-39.563,1.825,7,7,0,0,0,1.92,13.866,203.555,203.555,0,0,1,37.01-1.71l42.5,1.923c.1,0,.211.007.316.007a7,7,0,0,0,7-7c0-.624-.021-1.244-.046-1.862l5.039-2.657,61.57-33.216a22.988,22.988,0,0,1,26.481,3.267l-122.926,84.4a84.254,84.254,0,0,1-51.612,7.14l-74.68-13.752a34.727,34.727,0,0,0-25.271,3.44c-.109.062-.218.126-.323.193l-32.8,20.735-23.53-77.179A55.652,55.652,0,0,0,143.634,338.256ZM101.45,323l45.732,150H72.832L54.539,323Z"/><path d="M106.918,470.721a19,19,0,1,0-19-19A19.022,19.022,0,0,0,106.918,470.721Zm0-24a5,5,0,1,1-5,5A5.006,5.006,0,0,1,106.918,446.721Z"/><path d="M145.328,164.843l18.994,1.831a94.052,94.052,0,0,0,9.4,22.341l-12.063,14.566A7,7,0,0,0,162.1,213l22.778,22.778a7,7,0,0,0,9.415.442l14.6-12.095a95.782,95.782,0,0,0,22.3,9.426l1.831,19.061A7.057,7.057,0,0,0,240,259h32.294a7.057,7.057,0,0,0,6.968-6.392l1.831-19.025a94.108,94.108,0,0,0,22.34-9.414L318,236.224a7,7,0,0,0,9.414-.446L350.189,213a7,7,0,0,0,.443-9.416l-12.1-14.606a95.77,95.77,0,0,0,9.428-22.307l18.716-1.827a7,7,0,0,0,6.32-6.967V125.582a7,7,0,0,0-6.328-6.968l-18.994-1.83a94.052,94.052,0,0,0-9.4-22.341l12.063-14.567a7,7,0,0,0-.41-9.382L327.442,47.715A7,7,0,0,0,318,47.242l-14.6,12.1a95.782,95.782,0,0,0-22.3-9.426l-1.831-18.79A6.824,6.824,0,0,0,272.291,25H240a6.824,6.824,0,0,0-6.968,6.121L231.2,50.01a93.917,93.917,0,0,0-22.34,9.347L194.292,47.268a7,7,0,0,0-9.415.429L162.1,70.468a7,7,0,0,0-.442,9.411l12.1,14.6a95.775,95.775,0,0,0-9.426,22.3l-19,1.831A7,7,0,0,0,139,125.582v32.293A7,7,0,0,0,145.328,164.843ZM153,131.94l17.6-1.7a7,7,0,0,0,6.169-5.488A81.95,81.95,0,0,1,188.212,97.66a7,7,0,0,0-.49-8.259L176.505,75.855l13.766-13.766,13.544,11.217a7,7,0,0,0,8.348.434A79.385,79.385,0,0,1,239.17,62.358a6.767,6.767,0,0,0,5.488-5.962l1.7-17.4h19.58l1.7,17.4a6.882,6.882,0,0,0,5.488,6.066,81.812,81.812,0,0,1,27.1,11.387,7,7,0,0,0,8.26-.517l13.513-11.2,13.535,13.7L324.278,89.4a7,7,0,0,0-.432,8.346,79.4,79.4,0,0,1,11.381,27.006,7,7,0,0,0,6.169,5.488l17.6,1.7v19.585l-17.323,1.691a7,7,0,0,0-6.162,5.487,81.929,81.929,0,0,1-11.439,27.1,7,7,0,0,0,.49,8.26L335.784,207.6l-13.766,13.766-13.545-11.217a7,7,0,0,0-8.348-.434A79.385,79.385,0,0,1,273.118,221.1a7.073,7.073,0,0,0-5.488,6.233L265.934,245h-19.58l-1.7-17.667a7.038,7.038,0,0,0-5.488-6.2,81.99,81.99,0,0,1-27.095-11.454,7,7,0,0,0-8.26.483l-13.544,11.213L176.505,207.6l11.217-13.545a7,7,0,0,0,.432-8.349A79.405,79.405,0,0,1,176.773,158.7a7,7,0,0,0-6.169-5.488l-17.6-1.7Z"/><path d="M256.145,211.6a69.875,69.875,0,1,0-69.875-69.874A69.953,69.953,0,0,0,256.145,211.6Zm0-125.749a55.875,55.875,0,1,1-55.875,55.875A55.939,55.939,0,0,1,256.145,85.854Z"/><path d="M243.656,163.094a7,7,0,0,0,9.78,0l33.506-32.713a7,7,0,1,0-9.779-10.018L248.546,148.3l-13.709-13.384a7,7,0,1,0-9.779,10.018Z"/></svg>
